Coordinates
version=1
nRows=8
nColumns=40
inDegrees=yes

Units are S.I. units (second, meters, Newtons, ...)
Angles are in degrees.

endheader
time	pelvis_tilt	pelvis_list	pelvis_rotation	pelvis_tx	pelvis_ty	pelvis_tz	hip_flexion_r	hip_adduction_r	hip_rotation_r	knee_angle_r	knee_angle_r_beta	ankle_angle_r	subtalar_angle_r	mtp_angle_r	hip_flexion_l	hip_adduction_l	hip_rotation_l	knee_angle_l	knee_angle_l_beta	ankle_angle_l	subtalar_angle_l	mtp_angle_l	lumbar_extension	lumbar_bending	lumbar_rotation	arm_flex_r	arm_add_r	arm_rot_r	elbow_flex_r	pro_sup_r	wrist_flex_r	wrist_dev_r	arm_flex_l	arm_add_l	arm_rot_l	elbow_flex_l	pro_sup_l	wrist_flex_l	wrist_dev_l
     58.17692857	     -7.60337344	     -4.85542266	     -4.28237056	      1.08779885	      0.91869038	      0.46915291	     34.06904891	      1.09365781	     -9.33091970	     20.32962765	     20.32962765	      3.12148372	      1.90810886	      6.37832105	      5.16069202	     -6.60025271	     -6.11290876	     17.28746977	     17.28746977	     20.13932239	    -11.77994880	      1.65366533	    -12.33986506	      6.91600802	      3.68460183	    -17.78960482	    -12.22660363	    -11.48052638	     23.32598316	     47.05336089	      0.00000000	      0.00000000	     31.54261395	    -22.68553535	     -0.48372239	     87.60449226	     47.87952382	      0.00000000	      0.00000000
     58.18885714	     -7.47863393	     -4.60216108	     -4.25684519	      1.08990281	      0.91702394	      0.47167285	     33.08230569	      1.01897344	    -10.22358746	     20.12046600	     20.12046600	      3.12435817	      2.55105677	      5.85447492	      4.16588199	     -6.47717302	     -6.43896154	     16.93616130	     16.93616130	     20.66509500	    -11.11841374	      1.54508250	    -12.28594157	      6.53789173	      4.14061487	    -18.89286264	    -11.87345945	    -11.40145731	     23.83352623	     47.00198702	      0.00000000	      0.00000000	     32.15098794	    -22.17189182	     -0.27903331	     89.44840839	     47.91666915	      0.00000000	      0.00000000
     58.20078571	     -7.50928386	     -4.34444258	     -4.15137844	      1.09184248	      0.91504469	      0.47422424	     32.40767665	      0.93851328	    -10.76016469	     20.27202914	     20.27202914	      3.02437959	      2.60903230	      4.76628133	      3.61393226	     -6.40426227	     -6.62554503	     17.05816660	     17.05816660	     21.23827296	    -10.61745268	      1.47898758	    -12.00783669	      6.21292410	      4.18185611	    -19.72962590	    -11.59091968	    -11.25222257	     24.62763512	     46.93227399	      0.00000000	      0.00000000	     32.53901950	    -21.95272219	     -0.14681425	     90.73170465	     47.95115074	      0.00000000	      0.00000000
     58.21271429	     -7.60668141	     -4.15936290	     -4.00518851	      1.09365698	      0.91334041	      0.47682015	     31.78746151	      0.95970125	    -11.01967822	     20.43129405	     20.43129405	      3.16420541	      2.40033073	      4.61056266	      3.20025715	     -6.38252804	     -6.50104028	     17.24208784	     17.24208784	     21.54231390	    -10.61329278	      1.35409445	    -11.59719620	      6.01413646	      3.94022263	    -19.91440375	    -11.40328272	    -11.21612224	     24.63781452	     46.92529936	      0.00000000	      0.00000000	     32.74417975	    -21.83185464	     -0.13527217	     90.94474516	     47.95724936	      0.00000000	      0.00000000
     58.22464286	     -7.58172510	     -3.96877570	     -3.81402812	      1.09527555	      0.91187126	      0.47933263	     31.27580072	      0.87727420	    -11.22403956	     20.99502481	     20.99502481	      3.25015372	      2.15999542	      3.55989479	      2.96460743	     -6.42171762	     -6.46264529	     17.98754652	     17.98754652	     21.89830217	    -10.43359613	      1.22044194	    -11.52088838	      5.76118866	      4.15342562	    -20.11127990	    -11.12528452	    -10.99614091	     24.85888115	     46.88839437	      0.00000000	      0.00000000	     33.06030032	    -21.26255904	     -0.09763316	     92.12247826	     47.98842904	      0.00000000	      0.00000000
     58.23657143	     -7.58857075	     -3.85707178	     -3.58762685	      1.09670524	      0.91085611	      0.48176724	     30.77112701	      0.88198754	    -11.28792594	     21.42018172	     21.42018172	      3.32849337	      1.79433105	      2.60597680	      2.93392775	     -6.55379156	     -6.32130093	     18.99352761	     18.99352761	     22.09904508	    -10.48199068	      1.06478141	    -11.40680421	      5.65878239	      4.11763198	    -19.91945942	    -10.95383242	    -10.76468384	     25.07566496	     46.85598179	      0.00000000	      0.00000000	     33.05495738	    -20.83235486	     -0.07042781	     92.81469253	     48.00848211	      0.00000000	      0.00000000
     58.24850000	     -7.57256830	     -3.78079473	     -3.34120357	      1.09786098	      0.91033006	      0.48414129	     30.30736840	      0.90765028	    -11.23635866	     21.86299701	     21.86299701	      3.55713101	      1.38757837	      1.81793185	      3.09606117	     -6.73254445	     -6.06902156	     20.33369595	     20.33369595	     22.04884510	    -10.74200911	      0.86669214	    -11.38619760	      5.59217173	      4.06874725	    -19.44338351	    -10.83621227	    -10.53525926	     25.22164352	     46.83141049	      0.00000000	      0.00000000	     32.91499461	    -20.33203471	     -0.02984386	     93.32185260	     48.02166446	      0.00000000	      0.00000000
     58.26042857	     -7.46544515	     -3.71525241	     -3.06070079	      1.09878023	      0.91047418	      0.48635693	     29.78006763	      0.91066526	    -11.12245099	     22.27163532	     22.27163532	      3.88756320	      1.02512990	      1.27212844	      3.37722225	     -6.91770995	     -5.75835194	     22.00278465	     22.00278465	     21.77166446	    -11.18803177	      0.63388414	    -11.52306492	      5.55312379	      4.04205575	    -18.65834333	    -10.75773171	    -10.34607573	     25.39180712	     46.81372036	      0.00000000	      0.00000000	     32.61622382	    -19.74046428	      0.08969921	     93.61746921	     48.02265810	      0.00000000	      0.00000000
